<svg xmlns="http://www.w3.org/2000/svg" viewBox="0 0 44.16 50"><defs><style>.cls-1{fill:#124a99;}.cls-2{fill:#fd0;}.cls-3{fill:#da010b;}.cls-4{fill:#fff;}</style></defs><g id="Capa_2" data-name="Capa 2"><g id="Capa_1-2" data-name="Capa 1"><path class="cls-1" d="M44.16,14v14a33.13,33.13,0,0,1-2.91,2.15C37,33,31.81,33.86,28.58,34.15L27,23.94a33.64,33.64,0,0,0,11.87-5.2A28.07,28.07,0,0,0,44.16,14"/><path class="cls-1" d="M0,35.73V50s7-9.22,13.68-13.44a39.84,39.84,0,0,1,14.83-5.13L26.61,21.31s-7.79-1.37-16.2,4.23S0,35.73,0,35.73"/><path class="cls-2" d="M26.67,21.42c-1.39,0-9.45-.05-15.54,3.8A42.9,42.9,0,0,0,0,36.11V22.82s2.66-4.58,10.08-8.56c6.29-3.37,15-3.08,15-3.08Z"/><path class="cls-3" d="M.08,49.93A50.32,50.32,0,0,1,13.32,36.71a33.14,33.14,0,0,1,14.93-5.43l1.68,10.49a16.57,16.57,0,0,0-8.09,1.87,40,40,0,0,0-8.09,6.3H.08Z"/><polygon class="cls-4" points="34.41 28.94 34.06 27.45 32.55 27.32 33.85 26.54 33.51 25.05 34.66 26.05 35.96 25.27 35.37 26.67 36.51 27.67 35 27.54 34.41 28.94"/><polygon class="cls-4" points="39.71 26.43 39.37 24.95 37.85 24.81 39.15 24.03 38.81 22.55 39.96 23.55 41.26 22.77 40.67 24.17 41.81 25.16 40.3 25.03 39.71 26.43"/><polygon class="cls-4" points="5.65 39.1 4.14 38.96 3.55 40.36 3.2 38.88 1.69 38.75 2.99 37.97 2.65 36.49 3.79 37.48 5.1 36.7 4.5 38.1 5.65 39.1"/><polygon class="cls-4" points="20.53 28.76 19.01 28.62 18.42 30.02 18.07 28.54 16.56 28.41 17.86 27.63 17.52 26.15 18.67 27.14 19.97 26.36 19.38 27.76 20.53 28.76"/><polygon class="cls-4" points="15.03 31.36 13.52 31.22 12.92 32.62 12.58 31.14 11.06 31 12.37 30.22 12.02 28.74 13.17 29.74 14.47 28.96 13.88 30.36 15.03 31.36"/><polygon class="cls-4" points="10.09 35.03 8.57 34.9 7.98 36.3 7.63 34.82 6.12 34.68 7.42 33.9 7.08 32.42 8.23 33.42 9.53 32.64 8.94 34.03 10.09 35.03"/><polygon class="cls-4" points="26.28 27.74 24.76 27.61 24.17 29.01 23.83 27.53 22.31 27.39 23.61 26.61 23.27 25.13 24.42 26.13 25.72 25.35 25.13 26.75 26.28 27.74"/><path class="cls-2" d="M44.16,14a28.07,28.07,0,0,1-5.3,4.73A33.64,33.64,0,0,1,27,23.94l-1.63-10.5s3.19-.53,8.51-3.51A27.51,27.51,0,0,0,44.16,0Z"/><path class="cls-3" d="M28.58,34.15C31.81,33.86,37,33,41.25,30.21a33.75,33.75,0,0,0,2.91-2.16v12.1a36.87,36.87,0,0,1-6,2.89,41.48,41.48,0,0,1-7.91,2.11Z"/><polygon class="cls-4" points="28.86 30.39 28.52 28.91 27.73 28.84 27.67 28.38 28.3 27.99 27.96 26.51 29.11 27.51 30.41 26.73 29.82 28.12 30.96 29.13 29.45 28.99 28.86 30.39"/></g></g></svg>