<svg xmlns="http://www.w3.org/2000/svg" viewBox="0 0 360.39 50"><defs><style>.cls-1{fill:#575756;}.cls-2{fill:#fd0;}.cls-3{fill:#da010b;}.cls-4{fill:#124a99;}</style></defs><g id="Capa_2" data-name="Capa 2"><g id="Capa_1-2" data-name="Capa 1"><path class="cls-1" d="M56.23,16.36V15h5.31v4.43A9.48,9.48,0,0,1,59,20.78a7.57,7.57,0,0,1-2.66.47A7.44,7.44,0,0,1,53,20.5a5.12,5.12,0,0,1-2.28-2.18,6.66,6.66,0,0,1-.77-3.19,7.15,7.15,0,0,1,.77-3.26,4.92,4.92,0,0,1,2.2-2.24,7.17,7.17,0,0,1,3.31-.74,6.9,6.9,0,0,1,2.46.42,4.11,4.11,0,0,1,1.72,1.17,5.2,5.2,0,0,1,1,2l-1.5.39a4.23,4.23,0,0,0-.7-1.43,2.87,2.87,0,0,0-1.2-.84,4.54,4.54,0,0,0-1.72-.31,5.31,5.31,0,0,0-2,.33,3.82,3.82,0,0,0-1.34.86,4.18,4.18,0,0,0-.79,1.19,6,6,0,0,0-.48,2.4,5.56,5.56,0,0,0,.58,2.68,3.55,3.55,0,0,0,1.68,1.59,5.37,5.37,0,0,0,2.34.52,5.93,5.93,0,0,0,2.11-.39,5.6,5.6,0,0,0,1.55-.84V16.36Z"/><path class="cls-1" d="M62.79,16.72a4.36,4.36,0,0,1,1.4-3.56,4.38,4.38,0,0,1,2.86-1,4.17,4.17,0,0,1,3.06,1.17A4.35,4.35,0,0,1,71.3,16.6a5.52,5.52,0,0,1-.53,2.63,3.64,3.64,0,0,1-1.53,1.48,4.55,4.55,0,0,1-2.19.53A4.2,4.2,0,0,1,64,20.08,4.51,4.51,0,0,1,62.79,16.72Zm1.58,0a3.6,3.6,0,0,0,.76,2.49,2.62,2.62,0,0,0,3.83,0,3.71,3.71,0,0,0,.76-2.54A3.46,3.46,0,0,0,69,14.24a2.45,2.45,0,0,0-1.9-.83,2.5,2.5,0,0,0-1.92.82A3.6,3.6,0,0,0,64.37,16.72Z"/><path class="cls-1" d="M74.08,21.05H72.66V9.1H74.2v4.26a3.07,3.07,0,0,1,2.48-1.17,3.9,3.9,0,0,1,1.59.33,3.12,3.12,0,0,1,1.23.9,4.52,4.52,0,0,1,.76,1.41,5.59,5.59,0,0,1,.27,1.76A4.8,4.8,0,0,1,79.38,20a3.69,3.69,0,0,1-2.77,1.21A2.92,2.92,0,0,1,74.08,20Zm0-4.4a4.38,4.38,0,0,0,.44,2.25,2.25,2.25,0,0,0,3.71.3A3.68,3.68,0,0,0,79,16.71a3.73,3.73,0,0,0-.71-2.5,2.18,2.18,0,0,0-1.7-.81,2.25,2.25,0,0,0-1.75.84A3.53,3.53,0,0,0,74.07,16.65Z"/><path class="cls-1" d="M82,10.78V9.1h1.54v1.68Zm0,10.27V12.39h1.54v8.66Z"/><path class="cls-1" d="M91.63,18.26l1.59.19a3.69,3.69,0,0,1-1.39,2.06,4.32,4.32,0,0,1-2.6.73,4.26,4.26,0,0,1-3.16-1.17,4.42,4.42,0,0,1-1.16-3.28,4.69,4.69,0,0,1,1.17-3.39,4.13,4.13,0,0,1,3.07-1.21,4,4,0,0,1,3,1.19,4.53,4.53,0,0,1,1.16,3.32c0,.09,0,.22,0,.39H86.5a3.2,3.2,0,0,0,.84,2.19,2.61,2.61,0,0,0,1.9.76,2.36,2.36,0,0,0,1.44-.43A2.76,2.76,0,0,0,91.63,18.26Zm-5-2.37h5.07a2.84,2.84,0,0,0-.58-1.64,2.4,2.4,0,0,0-1.91-.85,2.52,2.52,0,0,0-1.78.68A2.61,2.61,0,0,0,86.58,15.89Z"/><path class="cls-1" d="M94.7,21.05V12.39h1.39V13.7a3.52,3.52,0,0,1,1-1.21,1.69,1.69,0,0,1,1-.3,3,3,0,0,1,1.58.48L99.1,14A2.27,2.27,0,0,0,98,13.71a1.54,1.54,0,0,0-.91.29,1.52,1.52,0,0,0-.57.8,5.54,5.54,0,0,0-.26,1.72v4.53Z"/><path class="cls-1" d="M100.11,21.05V12.39h1.39v1.23a3.31,3.31,0,0,1,2.89-1.43,3.94,3.94,0,0,1,1.51.29,2.39,2.39,0,0,1,1,.73,2.91,2.91,0,0,1,.47,1.09,7.52,7.52,0,0,1,.09,1.42v5.33H106V15.78a3.77,3.77,0,0,0-.18-1.34,1.42,1.42,0,0,0-.64-.71,2,2,0,0,0-1.07-.26,2.57,2.57,0,0,0-1.7.59,2.88,2.88,0,0,0-.71,2.26v4.73Z"/><path class="cls-1" d="M108.84,16.72a4.36,4.36,0,0,1,1.4-3.56,4.36,4.36,0,0,1,2.86-1,4.17,4.17,0,0,1,3.06,1.17,4.35,4.35,0,0,1,1.19,3.24,5.52,5.52,0,0,1-.53,2.63,3.64,3.64,0,0,1-1.53,1.48,4.55,4.55,0,0,1-2.19.53A4.2,4.2,0,0,1,110,20.08,4.51,4.51,0,0,1,108.84,16.72Zm1.58,0a3.6,3.6,0,0,0,.76,2.49,2.51,2.51,0,0,0,1.92.83,2.47,2.47,0,0,0,1.9-.83,3.66,3.66,0,0,0,.77-2.54,3.46,3.46,0,0,0-.77-2.43,2.45,2.45,0,0,0-1.9-.83,2.5,2.5,0,0,0-1.92.82A3.6,3.6,0,0,0,110.42,16.72Z"/><path class="cls-2" d="M10.12,25.12c8.5-5.67,16.29-4.38,16.62-4.32l.37.06.53,2.77a33.34,33.34,0,0,0,11-5,28.67,28.67,0,0,0,5.16-4.59l.38-.45V0A27.56,27.56,0,0,1,33.91,9.94a30.49,30.49,0,0,1-8.49,3.52l-.36-2.27s-8.67-.29-15,3.09C2.66,18.26,0,22.85,0,22.85V34.67C1,33.09,3.68,29.4,10.12,25.12Z"/><path class="cls-3" d="M42,30.79c-4.19,2.74-9.33,3.69-12.91,4l-.52,0L28.11,32A39.47,39.47,0,0,0,14,37C8.16,40.69,2,48.41.71,50H13.77a40.12,40.12,0,0,1,8.1-6.31,16.52,16.52,0,0,1,7.93-1.87l.53,3.39a41.07,41.07,0,0,0,7.91-2.12,36.65,36.65,0,0,0,6-2.89V29.15C43.46,29.74,42.7,30.3,42,30.79Z"/><path class="cls-4" d="M39.3,19.56a34,34,0,0,1-12,5.28l-.56.12-.58-3.12A24.12,24.12,0,0,0,10.73,26C2.58,31.46.56,36,.54,36l-.43.76-.08,0V49.08c1.64-2.09,7.58-9.35,13.4-13a40.15,40.15,0,0,1,15.08-5.22l.53-.06.43,2.88a27.25,27.25,0,0,0,11.89-3.79,33.71,33.71,0,0,0,2.86-2.11V15.26A29,29,0,0,1,39.3,19.56ZM4.14,39l-.59,1.39L3.2,38.93,1.69,38.8,3,38l-.34-1.49,1.15,1,1.3-.78-.59,1.4,1.15,1Zm4.44-4.08L8,36.34l-.35-1.48-1.51-.14,1.3-.78-.34-1.48,1.15,1,1.3-.78L9,34.08l1.15,1Zm4.95-3.68-.59,1.4-.35-1.48-1.51-.13,1.3-.79L12,28.78l1.15,1,1.3-.78-.59,1.4,1.15,1ZM19,28.66l-.6,1.4-.34-1.48-1.52-.13,1.31-.79-.35-1.48,1.15,1,1.3-.79L19.4,27.8l1.15,1Zm5.75-1-.59,1.41-.35-1.49-1.51-.13,1.3-.78-.34-1.49,1.15,1,1.3-.78-.59,1.4,1.15,1ZM29.49,29l-.6,1.4-.34-1.49-.81-.07-.07-.44.67-.4L28,26.54l1.14,1,1.31-.78-.59,1.4,1.14,1ZM35,27.57,34.45,29l-.34-1.48-1.52-.14,1.31-.78-.35-1.48,1.15,1L36,25.3l-.59,1.4,1.15,1Zm5.31-2.51-.59,1.4L39.42,25l-1.52-.14,1.3-.78-.34-1.49,1.15,1,1.3-.79-.59,1.41,1.15,1Z"/><path class="cls-1" d="M49.94,23.43h5a16.93,16.93,0,0,1,2.22.11,3.41,3.41,0,0,1,1.31.5,3.17,3.17,0,0,1,1,1,2.56,2.56,0,0,1,.39,1.39A2.65,2.65,0,0,1,59.35,28,2.93,2.93,0,0,1,58.06,29a3.3,3.3,0,0,1,1.77,1.08,2.78,2.78,0,0,1,.61,1.8A3.38,3.38,0,0,1,60,33.5,3.22,3.22,0,0,1,59,34.73a3.69,3.69,0,0,1-1.7.57c-.42,0-1.44.07-3,.08H49.94Zm2.53,2v2.77h1.66c1,0,1.6,0,1.84,0a1.71,1.71,0,0,0,1-.43,1.23,1.23,0,0,0,.37-.93,1.24,1.24,0,0,0-.32-.9,1.38,1.38,0,0,0-.95-.42c-.25,0-1-.05-2.16-.05Zm0,4.76v3.19h2.35a11.9,11.9,0,0,0,1.73-.07,1.58,1.58,0,0,0,.92-.48,1.4,1.4,0,0,0,.35-1,1.56,1.56,0,0,0-.27-.92,1.54,1.54,0,0,0-.79-.54,8.67,8.67,0,0,0-2.24-.17Z"/><path class="cls-1" d="M61.57,30.93a4.44,4.44,0,0,1,.59-2.21,3.86,3.86,0,0,1,1.67-1.63,5.11,5.11,0,0,1,2.42-.57,4.65,4.65,0,0,1,3.37,1.28A4.28,4.28,0,0,1,70.94,31a4.34,4.34,0,0,1-1.33,3.26,4.62,4.62,0,0,1-3.35,1.29A5.48,5.48,0,0,1,63.88,35a3.75,3.75,0,0,1-1.72-1.57A5,5,0,0,1,61.57,30.93Zm2.46.12a2.77,2.77,0,0,0,.64,2,2.08,2.08,0,0,0,1.58.69A2.05,2.05,0,0,0,67.83,33a2.8,2.8,0,0,0,.64-2,2.76,2.76,0,0,0-.64-2,2.08,2.08,0,0,0-1.58-.68,2.11,2.11,0,0,0-1.58.68A2.79,2.79,0,0,0,64,31.05Z"/><path class="cls-1" d="M72.4,35.38v-12h2.4v12Z"/><path class="cls-1" d="M76.84,25.55V23.43h2.41v2.12Zm0,9.83V26.72h2.41v8.66Z"/><path class="cls-1" d="M83.79,35.38l-3.66-8.66h2.52l1.71,4.42.49,1.47c.14-.37.22-.62.25-.74s.17-.49.26-.73l1.73-4.42h2.47L86,35.38Z"/><path class="cls-1" d="M92.39,29.36,90.21,29a3.18,3.18,0,0,1,1.26-1.86,4.75,4.75,0,0,1,2.67-.61,5.81,5.81,0,0,1,2.39.37,2.32,2.32,0,0,1,1.11.92A4.56,4.56,0,0,1,98,29.86l0,2.67a8.67,8.67,0,0,0,.12,1.69,5,5,0,0,0,.43,1.16H96.1c-.06-.15-.14-.38-.23-.68a2.66,2.66,0,0,0-.08-.27,4.34,4.34,0,0,1-1.32.86,3.91,3.91,0,0,1-1.49.28,3.22,3.22,0,0,1-2.22-.72A2.4,2.4,0,0,1,90,33a2.43,2.43,0,0,1,.36-1.31,2.47,2.47,0,0,1,1-.88,8.57,8.57,0,0,1,1.92-.53,13.87,13.87,0,0,0,2.33-.56V29.5a1.13,1.13,0,0,0-.34-.94A2.12,2.12,0,0,0,94,28.28a1.78,1.78,0,0,0-1,.24A1.61,1.61,0,0,0,92.39,29.36Zm3.21,1.86c-.31.1-.79.21-1.46.35a4.74,4.74,0,0,0-1.31.4,1,1,0,0,0-.47.81,1.08,1.08,0,0,0,.38.83,1.36,1.36,0,0,0,1,.35,2.14,2.14,0,0,0,1.24-.41,1.52,1.52,0,0,0,.58-.76,4.46,4.46,0,0,0,.09-1.11Z"/><path class="cls-1" d="M102.19,35.38h-2.4V26.72H102V28a3.76,3.76,0,0,1,1-1.15,2,2,0,0,1,1-.28,3.14,3.14,0,0,1,1.58.44l-.74,2a2.18,2.18,0,0,0-1.13-.37,1.44,1.44,0,0,0-.86.26,1.82,1.82,0,0,0-.55,1,13.24,13.24,0,0,0-.2,2.9Z"/><path class="cls-1" d="M106.27,25.55V23.43h2.4v2.12Zm0,9.83V26.72h2.4v8.66Z"/><path class="cls-1" d="M112.51,29.36,110.33,29a3.18,3.18,0,0,1,1.26-1.86,4.75,4.75,0,0,1,2.67-.61,5.81,5.81,0,0,1,2.39.37,2.32,2.32,0,0,1,1.11.92,4.56,4.56,0,0,1,.32,2.05l0,2.67a8.85,8.85,0,0,0,.11,1.69,5,5,0,0,0,.43,1.16h-2.37a5.76,5.76,0,0,1-.23-.68,2,2,0,0,0-.09-.27,4.34,4.34,0,0,1-1.32.86,3.87,3.87,0,0,1-1.49.28,3.2,3.2,0,0,1-2.21-.72,2.5,2.5,0,0,1-.44-3.15,2.35,2.35,0,0,1,1-.88,8.46,8.46,0,0,1,1.91-.53,13.87,13.87,0,0,0,2.33-.56V29.5a1.13,1.13,0,0,0-.34-.94,2.12,2.12,0,0,0-1.29-.28,1.78,1.78,0,0,0-1,.24A1.67,1.67,0,0,0,112.51,29.36Zm3.21,1.86c-.31.1-.79.21-1.46.35A4.74,4.74,0,0,0,113,32a1,1,0,0,0-.47.81,1.11,1.11,0,0,0,.38.83,1.37,1.37,0,0,0,1,.35,2.13,2.13,0,0,0,1.23-.41,1.41,1.41,0,0,0,.58-.76,4.46,4.46,0,0,0,.09-1.11Z"/><path class="cls-1" d="M128.27,35.38h-2.4V31a6.74,6.74,0,0,0-.15-1.82,1.34,1.34,0,0,0-.51-.64,1.47,1.47,0,0,0-.83-.22,2.06,2.06,0,0,0-1.12.32,1.66,1.66,0,0,0-.68.87,7.28,7.28,0,0,0-.18,2v3.92H120V26.72h2.23V28a3.69,3.69,0,0,1,3-1.47,3.61,3.61,0,0,1,1.45.28,2.47,2.47,0,0,1,1,.69,2.65,2.65,0,0,1,.47,1,6.7,6.7,0,0,1,.13,1.54Z"/><path class="cls-1" d="M129.73,30.93a4.55,4.55,0,0,1,.59-2.21A3.92,3.92,0,0,1,132,27.09a5.11,5.11,0,0,1,2.42-.57,4.67,4.67,0,0,1,3.38,1.28,4.64,4.64,0,0,1,0,6.48,4.59,4.59,0,0,1-3.34,1.29A5.5,5.5,0,0,1,132,35a3.8,3.8,0,0,1-1.72-1.57A5.12,5.12,0,0,1,129.73,30.93Zm2.46.12a2.77,2.77,0,0,0,.65,2,2.05,2.05,0,0,0,1.58.69A2.08,2.08,0,0,0,136,33a2.85,2.85,0,0,0,.63-2,2.8,2.8,0,0,0-.63-2,2.11,2.11,0,0,0-1.58-.68,2.08,2.08,0,0,0-1.58.68A2.79,2.79,0,0,0,132.19,31.05Z"/><path class="cls-1" d="M56.39,49.8V48.71A2.86,2.86,0,0,1,53.85,50a3.72,3.72,0,0,1-2-.57,3.9,3.9,0,0,1-1.41-1.59,5.39,5.39,0,0,1-.5-2.36,5.8,5.8,0,0,1,.46-2.35,3.49,3.49,0,0,1,1.35-1.62,3.83,3.83,0,0,1,2-.56,3.11,3.11,0,0,1,1.46.33,3.08,3.08,0,0,1,1,.86V37.85h1.53V49.8Zm-4.87-4.32A3.65,3.65,0,0,0,52.26,48a2.26,2.26,0,0,0,3.45,0,3.53,3.53,0,0,0,.7-2.4A3.91,3.91,0,0,0,55.7,43a2.23,2.23,0,0,0-1.77-.83,2.18,2.18,0,0,0-1.72.79A3.83,3.83,0,0,0,51.52,45.48Z"/><path class="cls-1" d="M66,47l1.59.18a3.68,3.68,0,0,1-1.39,2.07,4.32,4.32,0,0,1-2.6.73,4.26,4.26,0,0,1-3.16-1.17,4.42,4.42,0,0,1-1.16-3.28,4.62,4.62,0,0,1,1.18-3.39A4.05,4.05,0,0,1,63.53,41a4,4,0,0,1,3,1.18,4.57,4.57,0,0,1,1.16,3.33c0,.09,0,.22,0,.39H60.88A3.22,3.22,0,0,0,61.72,48a2.57,2.57,0,0,0,1.9.76,2.48,2.48,0,0,0,1.45-.42A2.81,2.81,0,0,0,66,47ZM61,44.64H66A2.9,2.9,0,0,0,65.45,43a2.42,2.42,0,0,0-1.91-.84,2.51,2.51,0,0,0-1.78.67A2.65,2.65,0,0,0,61,44.64Z"/><path class="cls-1" d="M77.32,49.8,72.47,37.85h1.79l3.26,8.69q.39,1,.66,2c.19-.65.42-1.3.67-2l3.39-8.69h1.69L79,49.8Z"/><path class="cls-1" d="M90,47l1.59.18a3.69,3.69,0,0,1-1.4,2.07,4.9,4.9,0,0,1-5.75-.44,4.43,4.43,0,0,1-1.17-3.28,4.62,4.62,0,0,1,1.18-3.39A4.08,4.08,0,0,1,87.55,41a4,4,0,0,1,3,1.18,4.61,4.61,0,0,1,1.15,3.33c0,.09,0,.22,0,.39H84.9A3.22,3.22,0,0,0,85.75,48a2.55,2.55,0,0,0,1.89.76,2.46,2.46,0,0,0,1.45-.42A2.82,2.82,0,0,0,90,47ZM85,44.64h5.07A2.9,2.9,0,0,0,89.47,43a2.4,2.4,0,0,0-1.9-.84,2.54,2.54,0,0,0-1.79.67A2.64,2.64,0,0,0,85,44.64Z"/><path class="cls-1" d="M93.12,49.8V41.15h1.39v1.23A3.32,3.32,0,0,1,97.4,41a3.9,3.9,0,0,1,1.51.28,2.43,2.43,0,0,1,1,.74,2.88,2.88,0,0,1,.48,1.08,9.07,9.07,0,0,1,.08,1.43V49.8H99V44.54a3.74,3.74,0,0,0-.18-1.34,1.4,1.4,0,0,0-.63-.71,2.11,2.11,0,0,0-1.08-.27,2.53,2.53,0,0,0-1.69.6,2.83,2.83,0,0,0-.72,2.26V49.8Z"/><path class="cls-1" d="M108.64,47l1.59.18a3.73,3.73,0,0,1-1.39,2.07,4.34,4.34,0,0,1-2.6.73,4.26,4.26,0,0,1-3.16-1.17,4.43,4.43,0,0,1-1.17-3.28,4.62,4.62,0,0,1,1.18-3.39A4.08,4.08,0,0,1,106.15,41a4,4,0,0,1,3,1.18,4.57,4.57,0,0,1,1.15,3.33c0,.09,0,.22,0,.39H103.5a3.22,3.22,0,0,0,.85,2.18,2.55,2.55,0,0,0,1.9.76,2.45,2.45,0,0,0,1.44-.42A2.76,2.76,0,0,0,108.64,47Zm-5-2.38h5.07a3,3,0,0,0-.58-1.64,2.44,2.44,0,0,0-1.91-.84,2.49,2.49,0,0,0-1.78.67A2.61,2.61,0,0,0,103.59,44.64Z"/><path class="cls-1" d="M110.91,49.8V48.61l5.78-6.32c-.65,0-1.23.05-1.73.05h-3.71V41.15h7.43v1l-4.92,5.49-1,1c.69,0,1.34-.07,1.94-.07H119V49.8Z"/><path class="cls-1" d="M126,49.8V48.53A3.35,3.35,0,0,1,123.11,50a4,4,0,0,1-1.5-.29,2.54,2.54,0,0,1-1-.74,2.65,2.65,0,0,1-.48-1.09,7.41,7.41,0,0,1-.09-1.37V41.15h1.54V46a8.62,8.62,0,0,0,.09,1.55,1.54,1.54,0,0,0,.62.91,2,2,0,0,0,1.16.33,2.71,2.71,0,0,0,1.3-.34,2,2,0,0,0,.86-.92,4.45,4.45,0,0,0,.25-1.7V41.15h1.54V49.8Z"/><path class="cls-1" d="M135.56,47l1.59.18a3.69,3.69,0,0,1-1.4,2.07,4.9,4.9,0,0,1-5.75-.44,4.43,4.43,0,0,1-1.17-3.28A4.62,4.62,0,0,1,130,42.16,4.08,4.08,0,0,1,133.07,41a4,4,0,0,1,3,1.18,4.61,4.61,0,0,1,1.15,3.33c0,.09,0,.22,0,.39h-6.77a3.22,3.22,0,0,0,.85,2.18,2.55,2.55,0,0,0,1.89.76,2.46,2.46,0,0,0,1.45-.42A2.82,2.82,0,0,0,135.56,47Zm-5.05-2.38h5.07A2.9,2.9,0,0,0,135,43a2.4,2.4,0,0,0-1.9-.84,2.54,2.54,0,0,0-1.79.67A2.64,2.64,0,0,0,130.51,44.64Z"/><path class="cls-1" d="M138.61,49.8V37.85h1.54V49.8Z"/><path class="cls-1" d="M148,48.74a5.76,5.76,0,0,1-1.65,1,4.92,4.92,0,0,1-1.69.29,3.37,3.37,0,0,1-2.3-.7,2.24,2.24,0,0,1-.81-1.78,2.31,2.31,0,0,1,.31-1.16,2.36,2.36,0,0,1,.79-.84,3.72,3.72,0,0,1,1.11-.49c.3-.07.76-.14,1.37-.22a14.33,14.33,0,0,0,2.74-.5c0-.2,0-.33,0-.38a1.56,1.56,0,0,0-.44-1.27,2.65,2.65,0,0,0-1.75-.49,2.83,2.83,0,0,0-1.6.36,2.19,2.19,0,0,0-.77,1.28l-1.5-.19a3.54,3.54,0,0,1,.67-1.49,3,3,0,0,1,1.36-.87,6.2,6.2,0,0,1,2.06-.31,5.77,5.77,0,0,1,1.89.26,2.49,2.49,0,0,1,1.07.66,2.18,2.18,0,0,1,.48,1,7.9,7.9,0,0,1,.08,1.35v2a18.76,18.76,0,0,0,.1,2.58,2.86,2.86,0,0,0,.39,1h-1.61A3.06,3.06,0,0,1,148,48.74Zm-.13-3.28a11.45,11.45,0,0,1-2.51.55,6,6,0,0,0-1.34.3,1.27,1.27,0,0,0-.61.47,1.25,1.25,0,0,0-.21.7,1.23,1.23,0,0,0,.46,1,2.09,2.09,0,0,0,1.37.39,3.26,3.26,0,0,0,1.58-.37,2.31,2.31,0,0,0,1-1,3.3,3.3,0,0,0,.25-1.46Z"/><rect class="cls-1" x="156.78" y="8.98" width="2.14" height="41.02" transform="translate(315.71 58.98) rotate(180)"/><path class="cls-1" d="M166.73,32.48v-11H169l2.75,7.82c.25.73.43,1.28.55,1.64.13-.4.34-1,.62-1.77l2.77-7.69h2.07v11h-1.48V23.23l-3.37,9.25h-1.38l-3.36-9.41v9.41Z"/><path class="cls-1" d="M179.76,23V21.43h1.42V23Zm0,9.49v-8h1.42v8Z"/><path class="cls-1" d="M183,32.48v-8h1.28v1.14A3,3,0,0,1,187,24.29a3.75,3.75,0,0,1,1.4.26,2.19,2.19,0,0,1,1,.69,2.46,2.46,0,0,1,.44,1,7.65,7.65,0,0,1,.08,1.32v4.92h-1.42V27.61a3.49,3.49,0,0,0-.17-1.24,1.39,1.39,0,0,0-.59-.66,2,2,0,0,0-1-.24,2.35,2.35,0,0,0-1.57.55,2.64,2.64,0,0,0-.66,2.09v4.37Z"/><path class="cls-1" d="M191.72,23V21.43h1.42V23Zm0,9.49v-8h1.42v8Z"/><path class="cls-1" d="M194.41,30.09l1.41-.21a1.82,1.82,0,0,0,.66,1.23,2.34,2.34,0,0,0,1.51.43,2.28,2.28,0,0,0,1.46-.38,1.13,1.13,0,0,0,.47-.89.8.8,0,0,0-.42-.72,6,6,0,0,0-1.45-.46,13.69,13.69,0,0,1-2.17-.65,2.08,2.08,0,0,1-.92-.77,1.91,1.91,0,0,1-.31-1.07,1.88,1.88,0,0,1,.26-1,2.12,2.12,0,0,1,.7-.76,2.92,2.92,0,0,1,.9-.39,4.4,4.4,0,0,1,1.23-.17,5.13,5.13,0,0,1,1.74.27,2.48,2.48,0,0,1,1.1.74,2.76,2.76,0,0,1,.49,1.24l-1.39.18a1.46,1.46,0,0,0-.55-1,2,2,0,0,0-1.29-.35,2.4,2.4,0,0,0-1.4.31.88.88,0,0,0-.42.72.72.72,0,0,0,.18.48,1.34,1.34,0,0,0,.54.36l1.26.34a19.66,19.66,0,0,1,2.11.63A2.13,2.13,0,0,1,201,29a1.9,1.9,0,0,1,.34,1.16,2.19,2.19,0,0,1-.41,1.28,2.76,2.76,0,0,1-1.2.92,4.5,4.5,0,0,1-1.77.33,4.08,4.08,0,0,1-2.49-.65A3,3,0,0,1,194.41,30.09Z"/><path class="cls-1" d="M205.86,31.27l.2,1.19a5.47,5.47,0,0,1-1.07.12,2.46,2.46,0,0,1-1.2-.23,1.26,1.26,0,0,1-.6-.61,4.52,4.52,0,0,1-.18-1.6V25.53h-1V24.47h1v-2l1.42-.81v2.79h1.43v1.06h-1.43v4.68a2.33,2.33,0,0,0,.07.75.53.53,0,0,0,.25.26.9.9,0,0,0,.48.1A6,6,0,0,0,205.86,31.27Z"/><path class="cls-1" d="M212.67,29.9l1.47.17A3.42,3.42,0,0,1,212.86,32a4,4,0,0,1-2.41.68,3.94,3.94,0,0,1-2.92-1.08,4.11,4.11,0,0,1-1.08-3,4.32,4.32,0,0,1,1.09-3.13,3.8,3.8,0,0,1,2.83-1.12,3.66,3.66,0,0,1,2.75,1.1,4.16,4.16,0,0,1,1.07,3.07c0,.08,0,.2,0,.36h-6.26a3,3,0,0,0,.79,2,2.35,2.35,0,0,0,1.75.7,2.28,2.28,0,0,0,1.34-.39A2.55,2.55,0,0,0,212.67,29.9ZM208,27.71h4.69a2.58,2.58,0,0,0-.54-1.52,2.22,2.22,0,0,0-1.76-.78,2.36,2.36,0,0,0-1.65.62A2.48,2.48,0,0,0,208,27.71Z"/><path class="cls-1" d="M215.59,32.48v-8h1.28v1.22a3.46,3.46,0,0,1,.91-1.13,1.62,1.62,0,0,1,.91-.27,2.87,2.87,0,0,1,1.46.44L219.66,26a2.05,2.05,0,0,0-1-.29,1.39,1.39,0,0,0-.84.26,1.48,1.48,0,0,0-.53.75,5,5,0,0,0-.24,1.58v4.19Z"/><path class="cls-1" d="M220.68,23V21.43h1.43V23Zm0,9.49v-8h1.43v8Z"/><path class="cls-1" d="M223.42,28.48a3.75,3.75,0,0,1,3.94-4.19,3.89,3.89,0,0,1,2.83,1.08,4,4,0,0,1,1.09,3,5.14,5.14,0,0,1-.48,2.43,3.38,3.38,0,0,1-1.42,1.38,4.22,4.22,0,0,1-2,.49,3.85,3.85,0,0,1-2.85-1.08A4.15,4.15,0,0,1,223.42,28.48Zm1.46,0a3.35,3.35,0,0,0,.7,2.3,2.44,2.44,0,0,0,3.54,0,3.4,3.4,0,0,0,.7-2.35,3.17,3.17,0,0,0-.71-2.25,2.27,2.27,0,0,0-1.75-.76,2.31,2.31,0,0,0-1.78.76A3.33,3.33,0,0,0,224.88,28.48Z"/><path class="cls-1" d="M242.25,32.48v-1a2.66,2.66,0,0,1-2.35,1.19,3.4,3.4,0,0,1-1.84-.53,3.47,3.47,0,0,1-1.31-1.47,4.89,4.89,0,0,1-.46-2.18,5.45,5.45,0,0,1,.42-2.17,3.25,3.25,0,0,1,1.25-1.5,3.57,3.57,0,0,1,1.88-.52,2.86,2.86,0,0,1,1.35.31,2.69,2.69,0,0,1,1,.79v-4h1.42v11Zm-4.5-4a3.36,3.36,0,0,0,.68,2.3,2.08,2.08,0,0,0,1.61.76,2,2,0,0,0,1.58-.72,3.24,3.24,0,0,0,.65-2.22,3.63,3.63,0,0,0-.66-2.41,2.06,2.06,0,0,0-1.64-.77,2,2,0,0,0-1.58.73A3.51,3.51,0,0,0,237.75,28.48Z"/><path class="cls-1" d="M251.23,29.9l1.47.17A3.39,3.39,0,0,1,251.41,32a4,4,0,0,1-2.4.68,3.94,3.94,0,0,1-2.92-1.08,4.11,4.11,0,0,1-1.08-3,4.27,4.27,0,0,1,1.09-3.13,3.8,3.8,0,0,1,2.83-1.12,3.68,3.68,0,0,1,2.75,1.1,4.2,4.2,0,0,1,1.07,3.07c0,.08,0,.2,0,.36h-6.26a3,3,0,0,0,.78,2,2.39,2.39,0,0,0,1.76.7,2.25,2.25,0,0,0,1.33-.39A2.63,2.63,0,0,0,251.23,29.9Zm-4.67-2.19h4.69a2.73,2.73,0,0,0-.54-1.52,2.22,2.22,0,0,0-1.76-.78,2.33,2.33,0,0,0-1.65.62A2.43,2.43,0,0,0,246.56,27.71Z"/><path class="cls-1" d="M254.13,32.48v-11h1.43v11Z"/><path class="cls-1" d="M261.79,32.48v-11h4.37a11.37,11.37,0,0,1,1.77.1,3.67,3.67,0,0,1,1.43.52,2.79,2.79,0,0,1,.93,1.07A3.46,3.46,0,0,1,269.7,27a4.66,4.66,0,0,1-3.4,1h-3v4.49Zm1.54-5.8h3a3.23,3.23,0,0,0,2.11-.53,1.82,1.82,0,0,0,.63-1.48,1.92,1.92,0,0,0-.37-1.19,1.72,1.72,0,0,0-1-.65,7.19,7.19,0,0,0-1.43-.1h-3Z"/><path class="cls-1" d="M271.56,28.48a3.75,3.75,0,0,1,3.93-4.19,3.85,3.85,0,0,1,2.83,1.08,4,4,0,0,1,1.1,3,5.14,5.14,0,0,1-.48,2.43,3.38,3.38,0,0,1-1.42,1.38,4.23,4.23,0,0,1-2,.49,3.88,3.88,0,0,1-2.85-1.08A4.19,4.19,0,0,1,271.56,28.48Zm1.46,0a3.3,3.3,0,0,0,.7,2.3,2.44,2.44,0,0,0,3.54,0,3.4,3.4,0,0,0,.7-2.35,3.21,3.21,0,0,0-.71-2.25,2.43,2.43,0,0,0-3.53,0A3.28,3.28,0,0,0,273,28.48Z"/><path class="cls-1" d="M286.21,32.48v-1a2.64,2.64,0,0,1-2.34,1.19,3.47,3.47,0,0,1-3.15-2,4.89,4.89,0,0,1-.47-2.18,5.45,5.45,0,0,1,.42-2.17,3.22,3.22,0,0,1,1.26-1.5,3.53,3.53,0,0,1,1.87-.52,2.9,2.9,0,0,1,2.32,1.1v-4h1.41v11Zm-4.49-4a3.31,3.31,0,0,0,.68,2.3,2.06,2.06,0,0,0,1.6.76,2.08,2.08,0,0,0,1.59-.72,3.29,3.29,0,0,0,.65-2.22,3.58,3.58,0,0,0-.67-2.41,2,2,0,0,0-1.63-.77,2,2,0,0,0-1.59.73A3.56,3.56,0,0,0,281.72,28.48Z"/><path class="cls-1" d="M295.19,29.9l1.48.17A3.49,3.49,0,0,1,295.38,32a4,4,0,0,1-2.41.68,4,4,0,0,1-2.92-1.08,4.11,4.11,0,0,1-1.08-3,4.32,4.32,0,0,1,1.09-3.13,3.8,3.8,0,0,1,2.83-1.12,3.7,3.7,0,0,1,2.76,1.1,4.2,4.2,0,0,1,1.06,3.07c0,.08,0,.2,0,.36h-6.26a3,3,0,0,0,.79,2,2.37,2.37,0,0,0,1.75.7,2.28,2.28,0,0,0,1.34-.39A2.55,2.55,0,0,0,295.19,29.9Zm-4.67-2.19h4.69a2.58,2.58,0,0,0-.54-1.52,2.22,2.22,0,0,0-1.76-.78,2.36,2.36,0,0,0-1.65.62A2.48,2.48,0,0,0,290.52,27.71Z"/><path class="cls-1" d="M298.11,32.48v-8h1.28v1.22a3.46,3.46,0,0,1,.91-1.13,1.62,1.62,0,0,1,.91-.27,2.87,2.87,0,0,1,1.46.44L302.18,26a2,2,0,0,0-1-.29,1.39,1.39,0,0,0-.84.26,1.48,1.48,0,0,0-.53.75,5,5,0,0,0-.24,1.58v4.19Z"/><path class="cls-1" d="M307.55,32.48v-11h4.37a11.37,11.37,0,0,1,1.77.1,3.67,3.67,0,0,1,1.43.52,2.79,2.79,0,0,1,.93,1.07,3.28,3.28,0,0,1,.35,1.5,3.35,3.35,0,0,1-.94,2.39,4.66,4.66,0,0,1-3.4,1h-3v4.49Zm1.54-5.8h3a3.23,3.23,0,0,0,2.11-.53,1.82,1.82,0,0,0,.63-1.48,2,2,0,0,0-.37-1.19,1.76,1.76,0,0,0-1-.65,7.19,7.19,0,0,0-1.43-.1h-3Z"/><path class="cls-1" d="M317.32,28.48a3.75,3.75,0,0,1,3.93-4.19,3.85,3.85,0,0,1,2.83,1.08,4,4,0,0,1,1.1,3,5,5,0,0,1-.49,2.43,3.3,3.3,0,0,1-1.41,1.38,4.26,4.26,0,0,1-2,.49,3.88,3.88,0,0,1-2.85-1.08A4.19,4.19,0,0,1,317.32,28.48Zm1.46,0a3.3,3.3,0,0,0,.7,2.3,2.44,2.44,0,0,0,3.54,0,3.45,3.45,0,0,0,.7-2.35,3.21,3.21,0,0,0-.71-2.25,2.43,2.43,0,0,0-3.53,0A3.28,3.28,0,0,0,318.78,28.48Z"/><path class="cls-1" d="M326.53,35.55V24.47h1.29v1a3.17,3.17,0,0,1,1-.91,2.87,2.87,0,0,1,1.4-.31,3.42,3.42,0,0,1,1.89.53,3.28,3.28,0,0,1,1.25,1.49,5.36,5.36,0,0,1,.41,2.11,5.11,5.11,0,0,1-.46,2.21A3.4,3.4,0,0,1,332,32.14a3.59,3.59,0,0,1-1.86.52,2.76,2.76,0,0,1-1.27-.29,2.83,2.83,0,0,1-.93-.72v3.9Zm1.28-7a3.38,3.38,0,0,0,.66,2.29,2.06,2.06,0,0,0,1.59.73,2.08,2.08,0,0,0,1.62-.76,3.51,3.51,0,0,0,.68-2.37,3.4,3.4,0,0,0-.66-2.29,2,2,0,0,0-1.58-.76,2.1,2.1,0,0,0-1.61.81A3.53,3.53,0,0,0,327.81,28.52Z"/><path class="cls-1" d="M340.71,32.48V31.3A3.11,3.11,0,0,1,338,32.66a3.54,3.54,0,0,1-1.38-.27,2.32,2.32,0,0,1-1-.68,2.59,2.59,0,0,1-.44-1,6.41,6.41,0,0,1-.09-1.27v-5h1.43v4.44a8.69,8.69,0,0,0,.08,1.44,1.45,1.45,0,0,0,.57.84,1.86,1.86,0,0,0,1.08.3,2.39,2.39,0,0,0,1.2-.31,1.75,1.75,0,0,0,.79-.85,4,4,0,0,0,.24-1.57V24.47H342v8Z"/><path class="cls-1" d="M343.85,32.48v-11h1.43v11Z"/><path class="cls-1" d="M352.64,31.49a5.55,5.55,0,0,1-1.52.91,4.74,4.74,0,0,1-1.57.26,3.15,3.15,0,0,1-2.13-.64,2.07,2.07,0,0,1-.74-1.65,2.12,2.12,0,0,1,.28-1.08,2.27,2.27,0,0,1,.73-.78,3.81,3.81,0,0,1,1-.44,9.84,9.84,0,0,1,1.26-.2,13.51,13.51,0,0,0,2.54-.47c0-.19,0-.31,0-.36a1.43,1.43,0,0,0-.41-1.16,2.43,2.43,0,0,0-1.62-.46,2.64,2.64,0,0,0-1.48.33,2.09,2.09,0,0,0-.71,1.19l-1.39-.18a3.27,3.27,0,0,1,.63-1.38,2.68,2.68,0,0,1,1.25-.8,5.85,5.85,0,0,1,1.91-.29,5.31,5.31,0,0,1,1.75.24,2.46,2.46,0,0,1,1,.61,2,2,0,0,1,.45.92,8.37,8.37,0,0,1,.07,1.26v1.8a18.6,18.6,0,0,0,.09,2.4,3,3,0,0,0,.36,1h-1.49A2.87,2.87,0,0,1,352.64,31.49Zm-.12-3a11,11,0,0,1-2.32.51,5.11,5.11,0,0,0-1.25.28,1.18,1.18,0,0,0-.56.44,1.1,1.1,0,0,0-.19.64,1.15,1.15,0,0,0,.43.91,1.89,1.89,0,0,0,1.26.36,3.06,3.06,0,0,0,1.46-.35,2.11,2.11,0,0,0,.94-.93,3.2,3.2,0,0,0,.23-1.36Z"/><path class="cls-1" d="M355.82,32.48v-8h1.28v1.22a3.46,3.46,0,0,1,.91-1.13,1.64,1.64,0,0,1,.91-.27,2.93,2.93,0,0,1,1.47.44L359.9,26a2.09,2.09,0,0,0-1-.29A1.39,1.39,0,0,0,358,26a1.54,1.54,0,0,0-.53.75,5.29,5.29,0,0,0-.23,1.58v4.19Z"/><path class="cls-1" d="M166.59,50V38.93h1.3v1a3.06,3.06,0,0,1,1-.92,3,3,0,0,1,1.4-.3,3.45,3.45,0,0,1,1.9.52,3.26,3.26,0,0,1,1.24,1.49,5.2,5.2,0,0,1,.42,2.11,5.08,5.08,0,0,1-.46,2.21,3.37,3.37,0,0,1-1.35,1.51,3.53,3.53,0,0,1-1.85.52,2.83,2.83,0,0,1-1.28-.28,3.08,3.08,0,0,1-.93-.73V50Zm1.29-7a3.37,3.37,0,0,0,.66,2.29,2,2,0,0,0,1.58.74,2.1,2.1,0,0,0,1.63-.77,3.51,3.51,0,0,0,.68-2.37,3.42,3.42,0,0,0-.66-2.29,2,2,0,0,0-1.58-.76,2.08,2.08,0,0,0-1.61.81A3.47,3.47,0,0,0,167.88,43Z"/><path class="cls-1" d="M180.75,45.94a5.41,5.41,0,0,1-1.52.91,4.74,4.74,0,0,1-1.57.26,3.17,3.17,0,0,1-2.13-.64,2.1,2.1,0,0,1-.74-1.65,2.06,2.06,0,0,1,.28-1.07,2.13,2.13,0,0,1,.74-.78,3.37,3.37,0,0,1,1-.45,9.84,9.84,0,0,1,1.26-.2,13.51,13.51,0,0,0,2.54-.47c0-.18,0-.3,0-.35a1.47,1.47,0,0,0-.4-1.17,2.46,2.46,0,0,0-1.62-.46,2.67,2.67,0,0,0-1.49.33,2,2,0,0,0-.7,1.19l-1.4-.18a3.27,3.27,0,0,1,.63-1.38,2.83,2.83,0,0,1,1.26-.8,5.76,5.76,0,0,1,1.9-.28,5.31,5.31,0,0,1,1.75.24,2.33,2.33,0,0,1,1,.6,2.23,2.23,0,0,1,.44.93,7.06,7.06,0,0,1,.07,1.25v1.81a18.4,18.4,0,0,0,.09,2.39,2.87,2.87,0,0,0,.36,1H181A2.87,2.87,0,0,1,180.75,45.94Zm-.12-3a10.27,10.27,0,0,1-2.32.52,5.5,5.5,0,0,0-1.24.27,1.27,1.27,0,0,0-.57.44,1.18,1.18,0,0,0,.24,1.55,1.93,1.93,0,0,0,1.26.36,3,3,0,0,0,1.46-.34,2.13,2.13,0,0,0,.94-.94,3.2,3.2,0,0,0,.23-1.36Z"/><path class="cls-1" d="M183.94,46.93v-8h1.28v1.21a3.29,3.29,0,0,1,.9-1.12,1.65,1.65,0,0,1,.92-.27,2.91,2.91,0,0,1,1.46.43L188,40.44a2.19,2.19,0,0,0-1-.29,1.43,1.43,0,0,0-1.36,1,5,5,0,0,0-.24,1.58v4.19Z"/><path class="cls-1" d="M194.5,45.94a5.55,5.55,0,0,1-1.52.91,4.74,4.74,0,0,1-1.57.26,3.15,3.15,0,0,1-2.13-.64,2.1,2.1,0,0,1-.74-1.65,2.06,2.06,0,0,1,.28-1.07,2.19,2.19,0,0,1,.73-.78,3.54,3.54,0,0,1,1-.45,9.84,9.84,0,0,1,1.26-.2,13.51,13.51,0,0,0,2.54-.47c0-.18,0-.3,0-.35a1.44,1.44,0,0,0-.41-1.17,2.43,2.43,0,0,0-1.62-.46,2.64,2.64,0,0,0-1.48.33,2.09,2.09,0,0,0-.71,1.19l-1.39-.18a3.27,3.27,0,0,1,.63-1.38,2.85,2.85,0,0,1,1.25-.8,5.86,5.86,0,0,1,1.91-.28,5.31,5.31,0,0,1,1.75.24,2.35,2.35,0,0,1,1,.6,2.13,2.13,0,0,1,.45.93,8.21,8.21,0,0,1,.07,1.25v1.81a18.4,18.4,0,0,0,.09,2.39,2.87,2.87,0,0,0,.36,1h-1.49A2.87,2.87,0,0,1,194.5,45.94Zm-.12-3a10.27,10.27,0,0,1-2.32.52,5.77,5.77,0,0,0-1.25.27,1.24,1.24,0,0,0-.56.44,1.18,1.18,0,0,0,.24,1.55,1.89,1.89,0,0,0,1.26.36,3,3,0,0,0,1.46-.34,2.13,2.13,0,0,0,.94-.94,3.2,3.2,0,0,0,.23-1.36Z"/><path class="cls-1" d="M201.84,46.93v-11h1.43v11Z"/><path class="cls-1" d="M210.63,45.94a5.44,5.44,0,0,1-1.53.91,4.68,4.68,0,0,1-1.56.26,3.13,3.13,0,0,1-2.13-.64,2.2,2.2,0,0,1-.46-2.72,2.11,2.11,0,0,1,.73-.78,3.43,3.43,0,0,1,1-.45,9.54,9.54,0,0,1,1.26-.2,13.68,13.68,0,0,0,2.54-.47c0-.18,0-.3,0-.35a1.44,1.44,0,0,0-.41-1.17,2.43,2.43,0,0,0-1.62-.46,2.64,2.64,0,0,0-1.48.33,2,2,0,0,0-.71,1.19l-1.39-.18a3.27,3.27,0,0,1,.63-1.38,2.74,2.74,0,0,1,1.25-.8,5.86,5.86,0,0,1,1.91-.28,5.24,5.24,0,0,1,1.74.24,2.33,2.33,0,0,1,1,.6,2.25,2.25,0,0,1,.45.93,8.21,8.21,0,0,1,.07,1.25v1.81A18.4,18.4,0,0,0,212,46a2.87,2.87,0,0,0,.36,1h-1.49A2.67,2.67,0,0,1,210.63,45.94Zm-.12-3a10.25,10.25,0,0,1-2.33.52,5.64,5.64,0,0,0-1.24.27,1.24,1.24,0,0,0-.56.44,1.13,1.13,0,0,0-.2.64,1.15,1.15,0,0,0,.43.91,1.94,1.94,0,0,0,1.27.36,3.05,3.05,0,0,0,1.46-.34,2.19,2.19,0,0,0,.94-.94,3.2,3.2,0,0,0,.23-1.36Z"/><path class="cls-1" d="M218.11,46.93v-11h8.6v1.87h-6.26V40.2h5.82v1.86h-5.82v3h6.48v1.86Z"/><path class="cls-1" d="M236.27,46.93h-2.06V45.76a3.44,3.44,0,0,1-1.21,1,3.31,3.31,0,0,1-1.42.33A3.24,3.24,0,0,1,229.11,46a4.37,4.37,0,0,1-1-3.1,4.35,4.35,0,0,1,1-3.1,3.36,3.36,0,0,1,2.54-1,3.21,3.21,0,0,1,2.43,1.11v-4h2.22Zm-5.93-4.17a3.59,3.59,0,0,0,.37,1.85,1.71,1.71,0,0,0,1.51.83,1.67,1.67,0,0,0,1.3-.62,2.79,2.79,0,0,0,.54-1.86,3,3,0,0,0-.52-2,1.71,1.71,0,0,0-1.34-.6,1.68,1.68,0,0,0-1.32.6A2.59,2.59,0,0,0,230.34,42.76Z"/><path class="cls-1" d="M243.66,46.93v-1.2a3,3,0,0,1-1.2,1,3.49,3.49,0,0,1-1.58.37,3.3,3.3,0,0,1-1.52-.35,2.18,2.18,0,0,1-1-1,4.21,4.21,0,0,1-.3-1.77V38.93h2.22V42.6a9.89,9.89,0,0,0,.12,2.07,1.21,1.21,0,0,0,.45.61,1.41,1.41,0,0,0,.82.22,1.8,1.8,0,0,0,1-.3,1.52,1.52,0,0,0,.62-.74,8.11,8.11,0,0,0,.17-2.16V38.93h2.22v8Z"/><path class="cls-1" d="M255,41.29l-2.19.38a1.46,1.46,0,0,0-.5-.94,1.57,1.57,0,0,0-1-.32A1.69,1.69,0,0,0,250,41a2.69,2.69,0,0,0-.49,1.83,3.14,3.14,0,0,0,.5,2,1.69,1.69,0,0,0,1.35.59,1.51,1.51,0,0,0,1-.35,2,2,0,0,0,.57-1.18l2.19.36a3.71,3.71,0,0,1-1.31,2.16,4.14,4.14,0,0,1-2.58.73A3.94,3.94,0,0,1,248.31,46a4.15,4.15,0,0,1-1.1-3.06,4.21,4.21,0,0,1,1.1-3.09,4,4,0,0,1,3-1.1,4.24,4.24,0,0,1,2.43.62A3.43,3.43,0,0,1,255,41.29Z"/><path class="cls-1" d="M258,41.37,256,41a3.06,3.06,0,0,1,1.17-1.72,4.45,4.45,0,0,1,2.47-.55,5.63,5.63,0,0,1,2.21.33,2.15,2.15,0,0,1,1,.85,4.18,4.18,0,0,1,.3,1.9l0,2.47a8.53,8.53,0,0,0,.1,1.56,4.59,4.59,0,0,0,.4,1.07h-2.2c-.05-.14-.13-.35-.21-.62a2.55,2.55,0,0,0-.08-.25,4,4,0,0,1-1.22.79,3.72,3.72,0,0,1-1.38.26,2.92,2.92,0,0,1-2-.67,2.17,2.17,0,0,1-.75-1.69,2.14,2.14,0,0,1,.34-1.21,2.18,2.18,0,0,1,.95-.82,7.68,7.68,0,0,1,1.77-.49,13,13,0,0,0,2.16-.52V41.5a1.06,1.06,0,0,0-.32-.87,1.92,1.92,0,0,0-1.19-.26,1.64,1.64,0,0,0-.93.22A1.59,1.59,0,0,0,258,41.37Zm3,1.72c-.29.09-.74.2-1.35.32a4.34,4.34,0,0,0-1.21.37.89.89,0,0,0-.44.75,1,1,0,0,0,.35.77,1.27,1.27,0,0,0,.88.32,2,2,0,0,0,1.15-.38,1.29,1.29,0,0,0,.53-.7,3.82,3.82,0,0,0,.09-1Z"/><path class="cls-1" d="M272.39,41.29l-2.19.38a1.52,1.52,0,0,0-.51-.94,1.57,1.57,0,0,0-1-.32,1.69,1.69,0,0,0-1.33.55,2.69,2.69,0,0,0-.49,1.83,3.14,3.14,0,0,0,.5,2,1.71,1.71,0,0,0,1.35.59,1.56,1.56,0,0,0,1-.35,2.07,2.07,0,0,0,.56-1.18l2.19.36a3.66,3.66,0,0,1-1.31,2.16,4.14,4.14,0,0,1-2.58.73A3.94,3.94,0,0,1,265.67,46a4.15,4.15,0,0,1-1.09-3.06,4.21,4.21,0,0,1,1.09-3.09,4,4,0,0,1,3-1.1,4.3,4.3,0,0,1,2.44.62A3.53,3.53,0,0,1,272.39,41.29Z"/><path class="cls-1" d="M273.75,37.84v-2H276v2Zm0,9.09v-8H276v8Z"/><path class="cls-1" d="M277.41,42.82a4.22,4.22,0,0,1,.54-2,3.62,3.62,0,0,1,1.55-1.5,4.7,4.7,0,0,1,2.23-.52,4.28,4.28,0,0,1,3.12,1.18,4,4,0,0,1,1.22,3,4,4,0,0,1-1.23,3,4.28,4.28,0,0,1-3.09,1.19,5.13,5.13,0,0,1-2.21-.49A3.63,3.63,0,0,1,278,45.16,4.71,4.71,0,0,1,277.41,42.82Zm2.27.11a2.54,2.54,0,0,0,.6,1.82,2,2,0,0,0,2.92,0,3.12,3.12,0,0,0,0-3.65,2,2,0,0,0-2.92,0A2.59,2.59,0,0,0,279.68,42.93Zm.94-5,1.09-2.26h2.49L282,38Z"/><path class="cls-1" d="M295.12,46.93H292.9V42.85a6.25,6.25,0,0,0-.14-1.68,1.24,1.24,0,0,0-.46-.59,1.39,1.39,0,0,0-.77-.21,1.86,1.86,0,0,0-1,.3,1.5,1.5,0,0,0-.63.8,6.7,6.7,0,0,0-.17,1.84v3.62h-2.22v-8h2.06V40.1a3.44,3.44,0,0,1,2.77-1.35,3.4,3.4,0,0,1,1.34.25,2.29,2.29,0,0,1,.93.64,2.38,2.38,0,0,1,.43.89,6.48,6.48,0,0,1,.12,1.43Z"/></g></g></svg>